<svg xmlns="http://www.w3.org/2000/svg" xmlns:xlink="http://www.w3.org/1999/xlink" width="8000" zoomAndPan="magnify" viewBox="0 0 6000 1499.999933" height="2000" preserveAspectRatio="xMidYMid meet" version="1.0"><defs><g/><clipPath id="4a6cca6a4d"><rect x="0" width="5818" y="0" height="1492"/></clipPath></defs><g transform="matrix(1, 0, 0, 1, 94, 0.000000000000112861)"><g clip-path="url(#4a6cca6a4d)"><g fill="#d3a743" fill-opacity="1"><g transform="translate(0.372171, 1176.732616)"><g><path d="M 73.03125 0 L 73.03125 -746.640625 L 970.765625 -746.640625 L 970.765625 -598.0625 L 222.859375 -598.0625 L 222.859375 -149.828125 L 970.765625 -149.828125 L 970.765625 0 Z M 73.03125 0 "/></g></g></g><g fill="#d3a743" fill-opacity="1"><g transform="translate(1043.91179, 1176.732616)"><g><path d="M 970.765625 0 L 73.03125 0 L 73.03125 -746.640625 L 970.765625 -746.640625 Z M 820.921875 -149.828125 L 820.921875 -598.0625 L 222.859375 -598.0625 L 222.859375 -149.828125 Z M 820.921875 -149.828125 "/></g></g></g><g fill="#d3a743" fill-opacity="1"><g transform="translate(2087.451408, 1176.732616)"><g><path d="M 970.765625 0 L 73.03125 0 L 73.03125 -746.640625 L 820.921875 -746.640625 L 820.921875 -1046.3125 L 970.765625 -1046.3125 Z M 820.921875 -149.828125 L 820.921875 -598.0625 L 222.859375 -598.0625 L 222.859375 -149.828125 Z M 820.921875 -149.828125 "/></g></g></g><g fill="#d3a743" fill-opacity="1"><g transform="translate(3130.991026, 1176.732616)"><g><path d="M 970.765625 -598.0625 L 73.03125 -598.0625 L 73.03125 -746.640625 L 970.765625 -746.640625 Z M 970.765625 -298.40625 L 73.03125 -298.40625 L 73.03125 -448.234375 L 970.765625 -448.234375 Z M 970.765625 0 L 73.03125 0 L 73.03125 -149.828125 L 970.765625 -149.828125 Z M 970.765625 0 "/></g></g></g><g fill="#d3a743" fill-opacity="1"><g transform="translate(4174.530645, 1176.732616)"><g><path d="M 222.859375 0 L 73.03125 0 L 73.03125 -149.828125 L 222.859375 -149.828125 Z M 222.859375 0 "/></g></g></g><g fill="#d3a743" fill-opacity="1"><g transform="translate(4470.347028, 1176.732616)"><g><path d="M 222.859375 0 L 73.03125 0 L 73.03125 -746.640625 L 222.859375 -746.640625 Z M 222.859375 0 "/></g></g></g><g fill="#d3a743" fill-opacity="1"><g transform="translate(4766.163411, 1176.732616)"><g><path d="M 222.859375 0 L 73.03125 0 L 73.03125 -746.640625 L 970.765625 -746.640625 L 970.765625 0 L 820.921875 0 L 820.921875 -598.0625 L 222.859375 -598.0625 Z M 222.859375 0 "/></g></g></g></g></g></svg>